<?xml version="1.0" encoding="utf-8"?>
<!-- Generator: Adobe Illustrator 24.3.0, SVG Export Plug-In . SVG Version: 6.00 Build 0)  -->
<svg version="1.1" xmlns="http://www.w3.org/2000/svg" xmlns:xlink="http://www.w3.org/1999/xlink" x="0px" y="0px"
	 viewBox="0 0 629.09 292.5" style="enable-background:new 0 0 629.09 292.5;" xml:space="preserve">
<style type="text/css">
	.st0{fill:none;stroke:#00AD4C;stroke-miterlimit:10;}
	.st1{fill:none;stroke:#EC008C;stroke-miterlimit:10;}
</style>
<g id="Crease">
</g>
<g id="Cut">
	<g>
		<line class="st0" x1="24.35" y1="95.48" x2="611.53" y2="95.48"/>
		<line class="st0" x1="24.35" y1="198.09" x2="611.53" y2="198.09"/>
		<line class="st0" x1="188.13" y1="95.48" x2="188.13" y2="198.09"/>
		<line class="st0" x1="319.15" y1="95.48" x2="319.15" y2="198.09"/>
		<line class="st0" x1="483.33" y1="95.48" x2="483.33" y2="198.09"/>
		<line class="st0" x1="611.53" y1="95.48" x2="611.53" y2="198.09"/>
		<line class="st0" x1="24.35" y1="95.48" x2="24.35" y2="198.09"/>
		<g>
			<path class="st1" d="M8.07,106.14"/>
			<polygon class="st1" points="480.99,271.54 321.57,271.54 321.57,199.75 319.15,198.09 316.89,199.75 316.89,271.54 
				190.47,271.54 190.47,199.75 188.05,198.09 185.79,199.75 185.79,271.54 24.35,271.54 24.35,198.09 8.07,188.02 8.07,106.14 
				24.35,95.48 24.35,20.95 185.79,20.95 185.79,92.75 188.13,95.48 190.47,92.75 190.47,20.95 317.04,20.95 317.04,92.75 
				319.15,95.48 321.71,92.75 321.71,20.95 480.99,20.95 480.99,92.75 483.33,95.48 485.67,92.75 485.67,20.95 611.53,20.95 
				611.53,95.48 614.23,96.84 614.23,196.62 611.53,198.09 611.53,271.54 485.67,271.54 485.67,199.75 483.25,198.09 480.99,199.75 
							"/>
		</g>
	</g>
</g>
</svg>
